{
    "asset" : {
        "generator" : "Khronos glTF Blender I/O v1.2.75",
        "version" : "2.0"
    },
    "scene" : 0,
    "scenes" : [
        {
            "extras" : {
                "glTF2ExportSettings" : {
                    "export_animations" : 0,
                    "export_extras" : 1,
                    "export_format" : "GLTF_SEPARATE",
                    "export_morph" : 0,
                    "export_skins" : 0,
                    "export_texture_dir" : ""
                }
            },
            "name" : "Scene",
            "nodes" : [
                0
            ]
        }
    ],
    "nodes" : [
        {
            "mesh" : 0,
            "name" : "Shape_IndexedFaceSet.074",
            "rotation" : [
                0,
                0.7071067094802856,
                -0.7071068286895752,
                -3.0908616110991716e-08
            ],
            "scale" : [
                100,
                100,
                100
            ],
            "translation" : [
                0,
                -0.3153149485588074,
                0
            ]
        }
    ],
    "materials" : [
        {
            "doubleSided" : true,
            "name" : "Black HL",
            "pbrMetallicRoughness" : {}
        }
    ],
    "meshes" : [
        {
            "name" : "Shape_IndexedFaceSet.129",
            "primitives" : [
                {
                    "attributes" : {
                        "POSITION" : 0,
                        "NORMAL" : 1,
                        "TEXCOORD_0" : 2,
                        "COLOR_0" : 3
                    },
                    "indices" : 4,
                    "material" : 0
                }
            ]
        }
    ],
    "accessors" : [
        {
            "bufferView" : 0,
            "componentType" : 5126,
            "count" : 1260,
            "max" : [
                0.0004999998491257429,
                0.031499218195676804,
                0.003900047391653061
            ],
            "min" : [
                -0.0005000001983717084,
                -0.03150078281760216,
                -0.0031529529951512814
            ],
            "type" : "VEC3"
        },
        {
            "bufferView" : 1,
            "componentType" : 5126,
            "count" : 1260,
            "type" : "VEC3"
        },
        {
            "bufferView" : 2,
            "componentType" : 5126,
            "count" : 1260,
            "type" : "VEC2"
        },
        {
            "bufferView" : 3,
            "componentType" : 5126,
            "count" : 1260,
            "type" : "VEC4"
        },
        {
            "bufferView" : 4,
            "componentType" : 5123,
            "count" : 1260,
            "type" : "SCALAR"
        }
    ],
    "bufferViews" : [
        {
            "buffer" : 0,
            "byteLength" : 15120,
            "byteOffset" : 0
        },
        {
            "buffer" : 0,
            "byteLength" : 15120,
            "byteOffset" : 15120
        },
        {
            "buffer" : 0,
            "byteLength" : 10080,
            "byteOffset" : 30240
        },
        {
            "buffer" : 0,
            "byteLength" : 20160,
            "byteOffset" : 40320
        },
        {
            "buffer" : 0,
            "byteLength" : 2520,
            "byteOffset" : 60480
        }
    ],
    "buffers" : [
        {
            "byteLength" : 63000,
            "uri" : "blank1mm.bin"
        }
    ]
}
